<svg xmlns="http://www.w3.org/2000/svg" version="1.1" xmlns:xlink="http://www.w3.org/1999/xlink" xmlns:svgjs="http://svgjs.dev/svgjs" width="1000" height="1000" viewBox="0 0 1000 1000"><rect width="1000" height="1000" fill="#ffffff"></rect><g transform="matrix(0.7,0,0,0.7,150.11670544195704,217.07927321891782)"><svg viewBox="0 0 305 247" data-background-color="#ffffff" preserveAspectRatio="xMidYMid meet" height="809" width="1000" xmlns="http://www.w3.org/2000/svg" xmlns:xlink="http://www.w3.org/1999/xlink"><g id="tight-bounds" transform="matrix(1,0,0,1,-0.05085012431970881,-0.10000085656488977)"><svg viewBox="0 0 305.10170035260103 247.2" height="247.2" width="305.10170035260103"><g><svg viewBox="0 0 395.52 320.45886301848157" height="247.2" width="305.10170035260103"><g transform="matrix(1,0,0,1,0,198.05643351739695)"><svg viewBox="0 0 395.52 122.40242950108458" height="122.40242950108458" width="395.52"><g id="textblocktransform"><svg viewBox="0 0 395.52 122.40242950108458" height="122.40242950108458" width="395.52" id="textblock"><g><svg viewBox="0 0 395.52 122.40242950108458" height="122.40242950108458" width="395.52"><g transform="matrix(1,0,0,1,0,0)"><svg width="395.52" viewBox="-2.3499999046325684 -51.25 279.8800048828125 84.0999984741211" height="122.40242950108458" data-palette-color="#636365"><g class="wordmark-text-0" data-fill-palette-color="primary" id="text-0"><path d="M59.1-9Q59.9-8.55 59.9-6.95L59.9-6.95Q59.9-5 58.93-3.03 57.95-1.05 56.18 0.25 54.4 1.55 52.05 1.55L52.05 1.55Q48.15 1.55 46.1-2.05 44.05-5.65 44.05-11.25L44.05-11.25Q44.05-14.6 44.75-18.45 45.45-22.3 46.45-25.65L46.45-25.65Q44.45-22.75 41.98-18.78 39.5-14.8 33.45-4.75L33.45-4.75Q32.35-2.9 32.35-2.1L32.35-2.1Q32.35-1.85 32.43-1.63 32.5-1.4 32.5-1.25L32.5-1.25Q32.5-1 32.1-0.9L32.1-0.9Q30.6-0.4 30.13-0.15 29.65 0.1 29.55 0.1L29.55 0.1Q29.25 0.1 29-0.4L29-0.4Q29.25-0.55 29.38-0.9 29.5-1.25 29.5-2.2L29.5-2.2Q29.5-4.65 28.55-11.58 27.6-18.5 26.6-24.5L26.6-24.5Q23.4-16.45 20.63-11.13 17.85-5.8 14.23-2.35 10.6 1.1 6.05 1.1L6.05 1.1Q3.4 1.1 1.5-0.05-0.4-1.2-1.38-3.18-2.35-5.15-2.35-7.5L-2.35-7.5Q-2.35-9.6-1.65-11.28-0.95-12.95 0.1-13.9 1.15-14.85 2.15-14.85L2.15-14.85Q2.65-14.85 2.95-14.6L2.95-14.6Q0.4-11.9 0.4-8.2L0.4-8.2Q0.4-5.15 1.98-3.45 3.55-1.75 6.5-1.75L6.5-1.75Q10.35-1.75 13.4-4.75 16.45-7.75 19.13-13.1 21.8-18.45 25.85-28.3L25.85-28.3Q25.8-28.65 25.75-29.05 25.7-29.45 25.6-29.85L25.6-29.85Q25.5-30.4 25.28-32.02 25.05-33.65 25.05-34.45L25.05-34.45Q25.05-35.4 25.55-35.83 26.05-36.25 26.75-36.25L26.75-36.25Q27.55-36.25 28.33-35.77 29.1-35.3 29.1-34.05L29.1-34.05Q29.1-33.75 28.8-31.45L28.8-31.45Q28.4-28.55 28.35-27.65L28.35-27.65Q28.75-25.15 30.05-16.15L30.05-16.15 31.5-6.15Q42.5-24.8 47.5-32.3L47.5-32.3Q49.65-35.5 50.83-36.77 52-38.05 52.95-38.05L52.95-38.05Q53.8-38.05 54.5-37.23 55.2-36.4 55.45-35.5L55.45-35.5Q54.1-35.5 52.8-34.33 51.5-33.15 50.4-31L50.4-31Q48.55-27.4 47.65-22.25 46.75-17.1 46.75-12.55L46.75-12.55Q46.75-7.1 48.15-4 49.55-0.9 52.45-0.9L52.45-0.9Q54.95-0.9 56.68-3.1 58.4-5.3 59.1-9L59.1-9ZM90.75-11.55Q91.4-11.55 91.4-10.25L91.4-10.25Q91.4-7.95 89.37-5.4 87.35-2.85 84.47-1.13 81.6 0.6 79.2 0.6L79.2 0.6Q77.25 0.6 76.2-0.6 75.15-1.8 74.95-3.7L74.95-3.7Q73.7-1.9 71.8-0.75 69.9 0.4 68.4 0.4L68.4 0.4Q67.1 0.4 65.82-0.48 64.55-1.35 63.75-2.63 62.95-3.9 62.9-5.05L62.9-5.05 65.35-15.15Q65.65-16.35 66.87-17.73 68.1-19.1 69.85-20 71.6-20.9 73.4-20.9L73.4-20.9Q75.7-20.9 77.45-19.35L77.45-19.35Q77.9-20.55 78.12-20.85 78.35-21.15 78.8-21.2L78.8-21.2 81.25-21.45 81.4-21.35Q80.4-20.55 79.95-18.85L79.95-18.85Q78.4-13.05 77.82-10.3 77.25-7.55 77.25-5.45L77.25-5.45Q77.25-3.35 77.8-2.38 78.35-1.4 79.65-1.4L79.65-1.4Q81.25-1.4 83.47-2.7 85.7-4 87.7-6.33 89.7-8.65 90.75-11.55L90.75-11.55ZM68.6-1.95Q69.45-1.95 70.67-2.55 71.9-3.15 72.97-4.28 74.05-5.4 74.45-6.85L74.45-6.85 75.4-10.95Q75.6-11.95 76.1-14.18 76.6-16.4 76.9-17.6L76.9-17.6Q75.5-19 73.5-19L73.5-19Q71.95-19 70.7-18.18 69.45-17.35 68.65-16.18 67.85-15 67.65-14.1L67.65-14.1 65.65-5.2Q65.75-3.95 66.65-2.95 67.55-1.95 68.6-1.95L68.6-1.95ZM113.09-10.25Q113.84-9.8 113.84-8.75L113.84-8.75Q113.84-8.15 113.62-7.7 113.4-7.25 113-6.75L113-6.75Q110.55-3.8 106.59-2.23 102.65-0.65 99.22-0.18 95.8 0.3 93.65 0.3L93.65 0.3Q92.34 0.3 91.84 0.05 91.34-0.2 91.34-0.95L91.34-0.95Q91.34-1.35 91.5-1.8L91.5-1.8Q92.9-1.55 93.45-1.55L93.45-1.55Q95.95-1.55 97.59-3.43 99.25-5.3 100.17-7.93 101.09-10.55 102.05-14.4L102.05-14.4Q102.2-14.85 102.4-15.75L102.4-15.75Q102.4-16.4 101.37-17.35 100.34-18.3 99.65-18.3L99.65-18.3Q99-18.3 97.59-17.48 96.2-16.65 94.87-15.08 93.55-13.5 92.95-11.45L92.95-11.45Q91.5-6.35 90.47-1.95 89.45 2.45 88.2 8.35L88.2 8.35Q85.59 20.55 83.59 28.35L83.59 28.35Q83.25 29.7 82.7 30.38 82.15 31.05 81.4 31.33 80.65 31.6 78.95 31.95L78.95 31.95Q76.8 32.35 75.05 32.85L75.05 32.85 74.5 32.6Q77.3 31.35 78.59 30.2 79.9 29.05 80.55 27.38 81.2 25.7 82.2 21.7L82.2 21.7Q88.59-3.45 93.59-24.55L93.59-24.55Q93.7-25 93.9-25.18 94.09-25.35 94.4-25.45L94.4-25.45Q94.9-25.65 95.59-25.98 96.3-26.3 96.55-26.35L96.55-26.35Q96.7-26.3 97-25.9L97-25.9Q96.9-25.55 96.75-25.35L96.75-25.35Q96.34-24.45 94.75-18.9L94.75-18.9Q94.3-17.4 94.2-17.05L94.2-17.05Q95.55-18.6 97.42-19.8 99.3-21 100.4-21L100.4-21Q101.3-21 102.5-20.18 103.7-19.35 104.55-18.2 105.4-17.05 105.4-16.1L105.4-16.1 104.8-13.8Q104.05-10.75 103.37-8.7 102.7-6.65 101.4-4.75 100.09-2.85 98.09-1.7L98.09-1.7Q101.05-2.1 103.34-2.9 105.65-3.7 108.05-5.43 110.45-7.15 113.09-10.25L113.09-10.25ZM135.79-10.25Q136.54-9.8 136.54-8.75L136.54-8.75Q136.54-8.15 136.32-7.7 136.09-7.25 135.69-6.75L135.69-6.75Q133.24-3.8 129.29-2.23 125.34-0.65 121.92-0.18 118.49 0.3 116.34 0.3L116.34 0.3Q115.04 0.3 114.54 0.05 114.04-0.2 114.04-0.95L114.04-0.95Q114.04-1.35 114.19-1.8L114.19-1.8Q115.59-1.55 116.14-1.55L116.14-1.55Q118.64-1.55 120.29-3.43 121.94-5.3 122.87-7.93 123.79-10.55 124.74-14.4L124.74-14.4Q124.89-14.85 125.09-15.75L125.09-15.75Q125.09-16.4 124.07-17.35 123.04-18.3 122.34-18.3L122.34-18.3Q121.69-18.3 120.29-17.48 118.89-16.65 117.57-15.08 116.24-13.5 115.64-11.45L115.64-11.45Q114.19-6.35 113.17-1.95 112.14 2.45 110.89 8.35L110.89 8.35Q108.29 20.55 106.29 28.35L106.29 28.35Q105.94 29.7 105.39 30.38 104.84 31.05 104.09 31.33 103.34 31.6 101.64 31.95L101.64 31.95Q99.49 32.35 97.74 32.85L97.74 32.85 97.19 32.6Q99.99 31.35 101.29 30.2 102.59 29.05 103.24 27.38 103.89 25.7 104.89 21.7L104.89 21.7Q111.29-3.45 116.29-24.55L116.29-24.55Q116.39-25 116.59-25.18 116.79-25.35 117.09-25.45L117.09-25.45Q117.59-25.65 118.29-25.98 118.99-26.3 119.24-26.35L119.24-26.35Q119.39-26.3 119.69-25.9L119.69-25.9Q119.59-25.55 119.44-25.35L119.44-25.35Q119.04-24.45 117.44-18.9L117.44-18.9Q116.99-17.4 116.89-17.05L116.89-17.05Q118.24-18.6 120.12-19.8 121.99-21 123.09-21L123.09-21Q123.99-21 125.19-20.18 126.39-19.35 127.24-18.2 128.09-17.05 128.09-16.1L128.09-16.1 127.49-13.8Q126.74-10.75 126.07-8.7 125.39-6.65 124.09-4.75 122.79-2.85 120.79-1.7L120.79-1.7Q123.74-2.1 126.04-2.9 128.34-3.7 130.74-5.43 133.14-7.15 135.79-10.25L135.79-10.25ZM160.94-17.65Q161.44-17.5 161.44-16.65L161.44-16.65Q161.44-15.4 160.44-14.08 159.44-12.75 157.72-11.9 155.99-11.05 153.94-11.05L153.94-11.05Q151.19-11.05 149.09-12.55L149.09-12.55Q148.79-11.1 148.34-9.6L148.34-9.6Q148.19-9.05 147.69-7.08 147.19-5.1 146.99-3.55L146.99-3.55Q146.64-2.75 145.59-1.83 144.54-0.9 143.09-0.25 141.64 0.4 140.24 0.4L140.24 0.4Q138.69 0.4 137.24-0.4 135.79-1.2 134.87-2.55 133.94-3.9 133.94-5.55L133.94-5.55Q134.64-7.65 135.09-9.5 135.54-11.35 135.94-13.25L135.94-13.25 136.44-15.75Q136.69-16.9 137.79-18.03 138.89-19.15 140.47-19.88 142.04-20.6 143.64-20.6L143.64-20.6Q144.24-20.6 145.34-20.4L145.34-20.4Q145.49-21.55 145.87-22 146.24-22.45 147.09-22.45L147.09-22.45Q147.59-22.45 148.24-22.3L148.24-22.3Q147.99-20.9 147.99-19.9L147.99-19.9Q147.99-17 149.74-15 151.49-13 154.49-13L154.49-13Q156.74-13 158.37-14.2 159.99-15.4 160.94-17.65L160.94-17.65ZM144.79-4.4Q145.19-6.4 145.94-8.95L145.94-8.95Q146.94-12.3 147.24-14.35L147.24-14.35Q146.14-15.75 145.74-17.75L145.74-17.75Q145.74-17.95 145.67-18.07 145.59-18.2 145.34-18.25L145.34-18.25Q144.59-18.55 143.64-18.55L143.64-18.55Q141.79-18.55 140.44-17.55 139.09-16.55 138.74-15.15L138.74-15.15Q138.59-14.55 137.64-10.45L137.64-10.45Q137.19-8.05 136.54-5.7L136.54-5.7Q136.54-3.85 137.79-2.83 139.04-1.8 140.44-1.8L140.44-1.8Q141.64-1.8 143.02-2.65 144.39-3.5 144.79-4.4L144.79-4.4ZM178.59-14Q179.09-14 179.39-13.53 179.69-13.05 179.69-12.35L179.69-12.35Q179.69-11.45 179.19-10.45L179.19-10.45Q177.79-7.5 175.19-5.03 172.59-2.55 169.56-1.1 166.54 0.35 163.94 0.35L163.94 0.35Q158.64 0.35 158.64-5.8L158.64-5.8Q158.64-10.1 160.99-19.63 163.34-29.15 167.79-44.9L167.79-44.9Q168.74-48.15 169.86-49.7 170.99-51.25 172.44-51.25L172.44-51.25Q173.49-51.25 174.46-50.53 175.44-49.8 176.09-48.3 176.74-46.8 176.74-44.6L176.74-44.6Q176.74-41.05 175.06-35.6 173.39-30.15 170.04-24.1 166.69-18.05 161.99-12.9L161.99-12.9Q161.14-8.5 161.14-6.35L161.14-6.35Q161.14-3.95 162.11-2.93 163.09-1.9 164.84-1.9L164.84-1.9Q167.29-1.9 170.06-3.55 172.84-5.2 175.14-8 177.44-10.8 178.59-14L178.59-14ZM169.09-41.75Q164.89-26.65 162.74-16.7L162.74-16.7Q166.44-21.35 169.11-26.85 171.79-32.35 173.11-37.15 174.44-41.95 174.44-44.7L174.44-44.7Q174.44-46.25 173.99-47.38 173.54-48.5 172.49-48.5L172.49-48.5Q171.89-48.5 171.06-47.25 170.24-46 169.09-41.75L169.09-41.75ZM197.64-14Q198.14-14 198.44-13.53 198.74-13.05 198.74-12.35L198.74-12.35Q198.74-11.45 198.24-10.45L198.24-10.45Q196.84-7.5 194.24-5.03 191.64-2.55 188.61-1.1 185.59 0.35 182.99 0.35L182.99 0.35Q177.69 0.35 177.69-5.8L177.69-5.8Q177.69-10.1 180.04-19.63 182.39-29.15 186.84-44.9L186.84-44.9Q187.79-48.15 188.91-49.7 190.04-51.25 191.49-51.25L191.49-51.25Q192.54-51.25 193.51-50.53 194.49-49.8 195.14-48.3 195.79-46.8 195.79-44.6L195.79-44.6Q195.79-41.05 194.11-35.6 192.44-30.15 189.09-24.1 185.74-18.05 181.04-12.9L181.04-12.9Q180.19-8.5 180.19-6.35L180.19-6.35Q180.19-3.95 181.16-2.93 182.14-1.9 183.89-1.9L183.89-1.9Q186.34-1.9 189.11-3.55 191.89-5.2 194.19-8 196.49-10.8 197.64-14L197.64-14ZM188.14-41.75Q183.94-26.65 181.79-16.7L181.79-16.7Q185.49-21.35 188.16-26.85 190.84-32.35 192.16-37.15 193.49-41.95 193.49-44.7L193.49-44.7Q193.49-46.25 193.04-47.38 192.59-48.5 191.54-48.5L191.54-48.5Q190.94-48.5 190.11-47.25 189.29-46 188.14-41.75L188.14-41.75ZM222.53-17.65Q223.03-17.5 223.03-16.65L223.03-16.65Q223.03-15.4 222.03-14.08 221.03-12.75 219.31-11.9 217.58-11.05 215.53-11.05L215.53-11.05Q212.78-11.05 210.68-12.55L210.68-12.55Q210.38-11.1 209.93-9.6L209.93-9.6Q209.78-9.05 209.28-7.08 208.78-5.1 208.58-3.55L208.58-3.55Q208.23-2.75 207.18-1.83 206.13-0.9 204.68-0.25 203.23 0.4 201.83 0.4L201.83 0.4Q200.28 0.4 198.83-0.4 197.38-1.2 196.46-2.55 195.53-3.9 195.53-5.55L195.53-5.55Q196.23-7.65 196.68-9.5 197.13-11.35 197.53-13.25L197.53-13.25 198.03-15.75Q198.28-16.9 199.38-18.03 200.48-19.15 202.06-19.88 203.63-20.6 205.23-20.6L205.23-20.6Q205.83-20.6 206.93-20.4L206.93-20.4Q207.08-21.55 207.46-22 207.83-22.45 208.68-22.45L208.68-22.45Q209.18-22.45 209.83-22.3L209.83-22.3Q209.58-20.9 209.58-19.9L209.58-19.9Q209.58-17 211.33-15 213.08-13 216.08-13L216.08-13Q218.33-13 219.96-14.2 221.58-15.4 222.53-17.65L222.53-17.65ZM206.38-4.4Q206.78-6.4 207.53-8.95L207.53-8.95Q208.53-12.3 208.83-14.35L208.83-14.35Q207.73-15.75 207.33-17.75L207.33-17.75Q207.33-17.95 207.26-18.07 207.18-18.2 206.93-18.25L206.93-18.25Q206.18-18.55 205.23-18.55L205.23-18.55Q203.38-18.55 202.03-17.55 200.68-16.55 200.33-15.15L200.33-15.15Q200.18-14.55 199.23-10.45L199.23-10.45Q198.78-8.05 198.13-5.7L198.13-5.7Q198.13-3.85 199.38-2.83 200.63-1.8 202.03-1.8L202.03-1.8Q203.23-1.8 204.61-2.65 205.98-3.5 206.38-4.4L206.38-4.4ZM243.23-12.2Q243.73-12.2 243.96-11.78 244.18-11.35 244.18-10.8L244.18-10.8Q244.18-9 242.28-6.25 240.38-3.5 237.46-1.45 234.53 0.6 231.68 0.6L231.68 0.6Q229.88 0.6 228.91-0.3 227.93-1.2 227.93-3.05L227.93-3.05Q227.93-5.6 229.33-9.98 230.73-14.35 231.88-17.25L231.88-17.25Q231.68-17.55 231.48-17.55L231.48-17.55Q231.28-17.55 231.03-17.4L231.03-17.4Q230.13-16.85 228.08-14.95 226.03-13.05 224.08-10.95 222.13-8.85 221.43-7.55L221.43-7.55Q220.63-5.4 220.43-4.83 220.23-4.25 220.03-2.95L220.03-2.95 219.58-0.7Q219.53-0.55 219.48-0.33 219.43-0.1 219.36-0.05 219.28 0 219.13 0L219.13 0Q218.68 0 217.96-0.1 217.23-0.2 217.23-0.4L217.23-0.4Q217.23-1 217.58-2.35 217.93-3.7 218.28-4.8 218.63-5.9 218.83-6.5L218.83-6.5 219.28-7.9Q220.73-12.9 221.26-15.18 221.78-17.45 222.28-20.25L222.28-20.25Q222.33-20.75 222.98-20.75L222.98-20.75Q223.43-20.75 224.01-20.53 224.58-20.3 224.68-19.9L224.68-19.9Q224.48-19 223.96-16.85 223.43-14.7 222.68-12.1L222.68-12.1Q225.58-15.35 228.71-18 231.83-20.65 232.88-20.65L232.88-20.65Q233.38-20.65 234.08-20.15 234.78-19.65 234.93-19.2L234.93-19.2Q233.33-14.9 231.88-9.83 230.43-4.75 230.43-3.15L230.43-3.15Q230.43-1.4 232.43-1.4L232.43-1.4Q235.38-1.4 238.41-4.7 241.43-8 243.23-12.2L243.23-12.2ZM268.28-17.65Q268.78-17.5 268.78-16.65L268.78-16.65Q268.78-15.4 267.78-14.08 266.78-12.75 265.05-11.9 263.33-11.05 261.28-11.05L261.28-11.05Q258.53-11.05 256.43-12.55L256.43-12.55Q256.13-11.1 255.68-9.6L255.68-9.6Q255.53-9.05 255.03-7.08 254.53-5.1 254.33-3.55L254.33-3.55Q253.98-2.75 252.93-1.83 251.88-0.9 250.43-0.25 248.98 0.4 247.58 0.4L247.58 0.4Q246.03 0.4 244.58-0.4 243.13-1.2 242.2-2.55 241.28-3.9 241.28-5.55L241.28-5.55Q241.98-7.65 242.43-9.5 242.88-11.35 243.28-13.25L243.28-13.25 243.78-15.75Q244.03-16.9 245.13-18.03 246.23-19.15 247.8-19.88 249.38-20.6 250.98-20.6L250.98-20.6Q251.58-20.6 252.68-20.4L252.68-20.4Q252.83-21.55 253.2-22 253.58-22.45 254.43-22.45L254.43-22.45Q254.93-22.45 255.58-22.3L255.58-22.3Q255.33-20.9 255.33-19.9L255.33-19.9Q255.33-17 257.08-15 258.83-13 261.83-13L261.83-13Q264.08-13 265.7-14.2 267.33-15.4 268.28-17.65L268.28-17.65ZM252.13-4.4Q252.53-6.4 253.28-8.95L253.28-8.95Q254.28-12.3 254.58-14.35L254.58-14.35Q253.48-15.75 253.08-17.75L253.08-17.75Q253.08-17.95 253-18.07 252.93-18.2 252.68-18.25L252.68-18.25Q251.93-18.55 250.98-18.55L250.98-18.55Q249.13-18.55 247.78-17.55 246.43-16.55 246.08-15.15L246.08-15.15Q245.93-14.55 244.98-10.45L244.98-10.45Q244.53-8.05 243.88-5.7L243.88-5.7Q243.88-3.85 245.13-2.83 246.38-1.8 247.78-1.8L247.78-1.8Q248.98-1.8 250.35-2.65 251.73-3.5 252.13-4.4L252.13-4.4ZM267.53 0.65Q265.13 0.65 263.45-0.5 261.78-1.65 261.78-3.15L261.78-3.15Q261.78-3.95 262.23-4.45 262.68-4.95 263.23-5.05L263.23-5.05Q263.78-3.15 265.03-2.2 266.28-1.25 268.08-1.25L268.08-1.25Q270.33-1.25 271.68-2.53 273.03-3.8 273.03-5.5L273.03-5.5Q273.03-6.75 272.3-7.7 271.58-8.65 270.13-9.9L270.13-9.9Q268.53-11.3 267.75-12.33 266.98-13.35 266.98-14.8L266.98-14.8Q266.98-16.35 267.95-17.75 268.93-19.15 270.45-20 271.98-20.85 273.63-20.85L273.63-20.85Q275.08-20.85 276.3-20.23 277.53-19.6 277.53-18.55L277.53-18.55Q277.53-17.55 276.33-16.45L276.33-16.45Q275.68-17.6 274.73-18.23 273.78-18.85 272.73-18.85L272.73-18.85Q271.13-18.85 270.3-17.68 269.48-16.5 269.48-15.35L269.48-15.35Q269.48-14.4 270.13-13.65 270.78-12.9 272.18-11.75L272.18-11.75Q273.88-10.3 274.78-9.15 275.68-8 275.68-6.45L275.68-6.45Q275.68-4.8 274.6-3.15 273.53-1.5 271.65-0.43 269.78 0.65 267.53 0.65L267.53 0.65Z" fill="#000000" data-fill-palette-color="primary"></path></g></svg></g></svg></g></svg></g></svg></g><g transform="matrix(1,0,0,1,116.39820380692012,0)"><svg viewBox="0 0 162.72359238615974 169.1601575704989" height="169.1601575704989" width="162.72359238615974"><g><svg xmlns="http://www.w3.org/2000/svg" xmlns:xlink="http://www.w3.org/1999/xlink" version="1.1" x="0" y="0" viewBox="18.322998046875 17.068994522094727 63.35498809814453 65.86100769042969" enable-background="new 0 0 100 100" xml:space="preserve" height="169.1601575704989" width="162.72359238615974" class="icon-icon-0" data-fill-palette-color="accent" id="icon-0"><g fill="#89939e" data-fill-palette-color="accent"><path d="M41.086 21.513c0.172-0.39 0.271-0.819 0.271-1.273 0-1.748-1.422-3.17-3.17-3.17s-3.17 1.422-3.17 3.17 1.422 3.17 3.17 3.17c0.375 0 0.73-0.077 1.064-0.197l24.309 26.045-13.675 27.35c-0.06-0.003-0.117-0.018-0.178-0.018-1.748 0-3.17 1.422-3.17 3.17s1.422 3.17 3.17 3.17c1.748 0 3.17-1.422 3.17-3.17 0-0.777-0.292-1.479-0.757-2.031l14.064-28.13c0.233-0.467 0.152-1.03-0.204-1.412L41.086 21.513z" fill="#000000" data-fill-palette-color="accent"></path><path d="M58.506 49.599c0.24-0.481 0.146-1.062-0.234-1.442L31.527 21.412c0.146-0.363 0.23-0.757 0.23-1.172 0-1.748-1.422-3.17-3.17-3.17s-3.17 1.422-3.17 3.17 1.422 3.17 3.17 3.17c0.415 0 0.808-0.085 1.171-0.23l14.67 14.67c-0.029 0.024-0.065 0.034-0.092 0.061L31.114 51.134l-6.682-6.682c0.145-0.363 0.23-0.757 0.23-1.172 0-1.748-1.422-3.17-3.169-3.17-1.748 0-3.17 1.422-3.17 3.17 0 1.748 1.422 3.17 3.17 3.17 0.414 0 0.808-0.085 1.171-0.23l6.683 6.682-7.089 7.089c-0.088 0.088-0.142 0.193-0.198 0.297-0.287 0.229-0.482 0.566-0.482 0.962v6.018c-0.365 0.149-0.705 0.363-0.992 0.65-1.235 1.236-1.235 3.247 0 4.483 0.599 0.599 1.395 0.929 2.242 0.929s1.643-0.33 2.241-0.929c0.599-0.599 0.929-1.395 0.929-2.241s-0.33-1.643-0.929-2.242c-0.287-0.287-0.626-0.501-0.991-0.65v-5.562l22.028-22.028c0.027-0.027 0.037-0.063 0.061-0.092L48.9 42.32 27.704 63.516c-0.008 0.008-0.01 0.019-0.018 0.027-0.104 0.11-0.192 0.236-0.251 0.379-0.063 0.153-0.097 0.315-0.097 0.479v10.548c-0.365 0.149-0.705 0.363-0.992 0.65-1.236 1.235-1.236 3.247 0 4.483 0.599 0.599 1.395 0.928 2.242 0.928 0.847 0 1.643-0.329 2.241-0.928 1.236-1.236 1.236-3.247 0-4.483-0.287-0.287-0.626-0.501-0.991-0.65V64.917l20.83-20.83 5.199 5.199L42.206 76.608c-0.061-0.003-0.118-0.018-0.179-0.018-1.748 0-3.17 1.422-3.17 3.17s1.422 3.17 3.17 3.17c1.748 0 3.17-1.422 3.17-3.17 0-0.777-0.292-1.479-0.757-2.031L58.506 49.599z" fill="#000000" data-fill-palette-color="accent"></path><path d="M78.508 74.67c-0.257 0-0.503 0.039-0.742 0.097l-3.768-5.023V49.04c0-0.313-0.118-0.614-0.329-0.845l-8.208-8.954 6.114-6.114c0.363 0.146 0.757 0.231 1.172 0.231 1.748 0 3.169-1.422 3.169-3.17 0-1.748-1.422-3.17-3.169-3.17-1.748 0-3.17 1.422-3.17 3.17 0 0.415 0.085 0.808 0.23 1.171l-6.038 6.037-3.066-3.345 10.872-10.872c0.363 0.145 0.757 0.23 1.172 0.23 1.748 0 3.169-1.422 3.169-3.17s-1.422-3.17-3.169-3.17c-1.748 0-3.17 1.422-3.17 3.17 0 0.415 0.085 0.809 0.23 1.172L59.013 32.207l-6.135-6.693V23.15c1.127-0.486 1.92-1.607 1.92-2.911 0-1.748-1.422-3.17-3.17-3.17-1.748 0-3.17 1.422-3.17 3.17 0 1.304 0.792 2.425 1.92 2.911V26c0 0.061 0.026 0.114 0.035 0.172 0.014 0.095 0.021 0.189 0.057 0.279 0.033 0.086 0.088 0.156 0.139 0.231 0.035 0.053 0.053 0.114 0.098 0.162l20.792 22.682V70.16c0 0.271 0.087 0.534 0.25 0.75l4.021 5.362c-0.267 0.464-0.432 0.995-0.432 1.568 0 1.748 1.422 3.17 3.17 3.17 1.748 0 3.17-1.422 3.17-3.17S80.255 74.67 78.508 74.67z" fill="#000000" data-fill-palette-color="accent"></path></g></svg></g></svg></g><g></g></svg></g><defs></defs></svg><rect width="305.10170035260103" height="247.2" fill="none" stroke="none" visibility="hidden"></rect></g></svg></g></svg>